<svg width="53" height="52" viewBox="0 0 53 52" fill="none" xmlns="http://www.w3.org/2000/svg">
<rect x="1.82617" y="1.5" width="49" height="49" rx="24.5" fill="#0110CF"/>
<rect x="1.82617" y="1.5" width="49" height="49" rx="24.5" stroke="#D7D7D7" stroke-width="3"/>
<path d="M21.257 15C17.8019 15 15 17.8019 15 21.257V31.2682C15 34.7233 17.8019 37.5251 21.257 37.5251H31.2682C34.7233 37.5251 37.5251 34.7233 37.5251 31.2682V21.257C37.5251 17.8019 34.7233 15 31.2682 15H21.257ZM33.771 17.5028C34.4617 17.5028 35.0223 18.0634 35.0223 18.7542C35.0223 19.445 34.4617 20.0056 33.771 20.0056C33.0802 20.0056 32.5196 19.445 32.5196 18.7542C32.5196 18.0634 33.0802 17.5028 33.771 17.5028ZM26.2626 20.0056C29.7177 20.0056 32.5196 22.8075 32.5196 26.2626C32.5196 29.7177 29.7177 32.5196 26.2626 32.5196C22.8075 32.5196 20.0056 29.7177 20.0056 26.2626C20.0056 22.8075 22.8075 20.0056 26.2626 20.0056ZM26.2626 22.5084C25.2669 22.5084 24.312 22.9039 23.608 23.608C22.9039 24.312 22.5084 25.2669 22.5084 26.2626C22.5084 27.2582 22.9039 28.2131 23.608 28.9172C24.312 29.6212 25.2669 30.0168 26.2626 30.0168C27.2582 30.0168 28.2131 29.6212 28.9172 28.9172C29.6212 28.2131 30.0168 27.2582 30.0168 26.2626C30.0168 25.2669 29.6212 24.312 28.9172 23.608C28.2131 22.9039 27.2582 22.5084 26.2626 22.5084Z" fill="white"/>
</svg>
