<svg width="122" height="122" viewBox="0 0 122 122" fill="none" xmlns="http://www.w3.org/2000/svg">
<rect x="0.28125" y="0.500977" width="120.784" height="120.784" rx="60.3918" fill="#0110CF"/>
<path d="M49.0812 33.501C40.789 33.501 34.0645 40.2255 34.0645 48.5177V72.5446C34.0645 80.8368 40.789 87.5613 49.0812 87.5613H73.108C81.4003 87.5613 88.1248 80.8368 88.1248 72.5446V48.5177C88.1248 40.2255 81.4003 33.501 73.108 33.501H49.0812ZM79.1147 39.5077C80.7726 39.5077 82.1181 40.8532 82.1181 42.511C82.1181 44.1689 80.7726 45.5144 79.1147 45.5144C77.4569 45.5144 76.1114 44.1689 76.1114 42.511C76.1114 40.8532 77.4569 39.5077 79.1147 39.5077ZM61.0946 45.5144C69.3869 45.5144 76.1114 52.2389 76.1114 60.5311C76.1114 68.8234 69.3869 75.5479 61.0946 75.5479C52.8024 75.5479 46.0779 68.8234 46.0779 60.5311C46.0779 52.2389 52.8024 45.5144 61.0946 45.5144ZM61.0946 51.5211C58.705 51.5211 56.4133 52.4704 54.7236 54.1601C53.0338 55.8498 52.0846 58.1415 52.0846 60.5311C52.0846 62.9208 53.0338 65.2125 54.7236 66.9022C56.4133 68.5919 58.705 69.5412 61.0946 69.5412C63.4842 69.5412 65.776 68.5919 67.4657 66.9022C69.1554 65.2125 70.1047 62.9208 70.1047 60.5311C70.1047 58.1415 69.1554 55.8498 67.4657 54.1601C65.776 52.4704 63.4842 51.5211 61.0946 51.5211Z" fill="white"/>
</svg>
