<svg width="52" height="52" viewBox="0 0 52 52" fill="none" xmlns="http://www.w3.org/2000/svg">
<rect width="52" height="52" rx="26" fill="#0110CF"/>
<path d="M33.9807 35.4773C34.4355 33.9554 36.4062 19.7503 36.5577 16.8754C36.5577 16.0299 36.4061 15.5226 35.9514 15.1844C35.345 14.8461 34.5871 15.0152 33.5259 15.3535C32.1616 15.8608 14.8802 24.1471 13.8191 24.6544C12.9095 25.1617 12 25.6691 12 26.3455C12 26.8528 12.3032 27.191 13.0611 27.3601C13.8191 27.6984 15.7898 28.3748 16.8509 28.713C17.912 29.0512 19.1248 28.713 19.8827 28.2057C20.6407 27.6984 29.1298 21.2723 29.7361 20.7649C30.3425 20.2576 30.7973 20.934 30.3425 21.4414C29.8877 21.9487 23.9757 28.3748 23.2177 29.2203C22.3082 30.235 22.9146 31.4187 23.5209 31.757C24.2789 32.2643 29.433 36.1538 30.1909 36.6611C30.9489 37.3375 31.7068 37.5066 32.4648 37.5066C33.2227 37.6757 33.5259 36.6611 33.9807 35.4773Z" fill="white"/>
</svg>
