<svg width="50" height="49" viewBox="0 0 50 49" fill="none" xmlns="http://www.w3.org/2000/svg">
<path d="M5.84744 45.5286L13.312 43.1623C23.7162 49.5345 37.3723 46.5377 44.1149 36.2639C46.5105 32.6141 47.8028 28.3613 47.8404 23.9959L47.8405 23.9849L47.8404 23.9739C47.7651 11.5396 37.6417 1.47752 25.1835 1.50017C12.712 1.45242 2.56275 11.5157 2.50002 23.9871H2.5V23.9947C2.5 28.4764 3.84364 32.8491 6.36444 36.5402L3.97307 43.6187L3.02561 46.4232L5.84744 45.5286Z" fill="black" stroke="#D7D7D7" stroke-width="3"/>
<path d="M36.4634 28.7391C36.3345 28.5165 35.9596 28.3642 35.409 28.0947C34.8583 27.8253 32.1403 26.5014 31.6482 26.3022C31.1562 26.1031 30.7696 26.0211 30.4064 26.5834C30.0432 27.1458 29.4691 27.9541 29.1411 28.3173C28.813 28.6805 28.4967 28.7274 27.9344 28.4462C24.7125 27.0403 21.9945 24.6972 20.1434 21.7097C19.8271 21.159 20.1434 20.8662 20.3895 20.5967C21.315 19.6712 21.3267 19.8117 21.561 19.3548C21.725 19.0502 21.725 18.6988 21.561 18.3941C21.2799 18.0778 20.2489 15.4066 19.7685 14.3171C19.2882 13.2275 16.9333 13.0167 16.0078 14.0359C6.22521 24.3457 30.0666 42.0129 36.1588 31.2462C36.6625 30.5199 36.7797 29.5943 36.4634 28.7625" fill="white"/>
</svg>
