<svg width="43" height="42" viewBox="0 0 43 42" fill="none" xmlns="http://www.w3.org/2000/svg">
<path d="M21.1819 0.000174537C9.53656 -0.0466882 0.0585784 9.34928 0 20.9947C0 25.4232 1.40588 29.7346 4.03019 33.2961L1.39417 41.0988L9.52485 38.5213C19.3074 44.9415 32.4407 42.2235 38.8609 32.4409C41.0986 29.0316 42.3053 25.06 42.3405 20.9829C42.2702 9.37271 32.8156 -0.0232568 21.1819 0.000174537Z" fill="black"/>
<path d="M32.4634 25.7391C32.3345 25.5165 31.9596 25.3642 31.409 25.0947C30.8583 24.8253 28.1403 23.5014 27.6482 23.3022C27.1562 23.1031 26.7696 23.0211 26.4064 23.5834C26.0432 24.1458 25.4691 24.9541 25.1411 25.3173C24.813 25.6805 24.4967 25.7274 23.9344 25.4462C20.7125 24.0403 17.9945 21.6972 16.1434 18.7097C15.8271 18.159 16.1434 17.8662 16.3895 17.5967C17.315 16.6712 17.3267 16.8117 17.561 16.3548C17.725 16.0502 17.725 15.6988 17.561 15.3941C17.2799 15.0778 16.2489 12.4066 15.7685 11.3171C15.2882 10.2275 12.9333 10.0167 12.0078 11.0359C2.22521 21.3457 26.0666 39.0129 32.1588 28.2462C32.6625 27.5199 32.7797 26.5943 32.4634 25.7625" fill="white"/>
</svg>
