<svg width="113" height="74" viewBox="0 0 113 74" fill="none" xmlns="http://www.w3.org/2000/svg">
<path d="M36.8517 59.7991H27.5684L27.0114 53.4934H19.6728L16.8568 59.7991H13.0078L24.7074 34.6123H34.1076L36.8427 59.7991H36.8517ZM20.9842 50.5966H26.7375L25.8258 39.8086L20.9887 50.5966H20.9842Z" fill="white"/>
<path d="M53.5473 42.7471H61.6405L57.9936 59.8047H51.5667L50.8526 57.2672H50.6145C49.9274 58.0891 48.9932 58.7673 47.8165 59.3107C46.6398 59.8541 45.4586 60.1236 44.2684 60.1236C42.683 60.1236 41.439 59.7194 40.5407 58.9155C39.6425 58.1071 39.1934 57.0561 39.1934 55.7626C39.1934 55.1024 39.3056 54.276 39.5302 53.2835C39.7548 52.2909 39.9614 51.3612 40.1455 50.4854L41.8117 42.7516H49.8645L47.8794 52.0349C47.8255 52.246 47.7716 52.4975 47.7222 52.7894C47.6683 53.0814 47.6144 53.3643 47.565 53.6428C47.5156 53.9212 47.4662 54.1862 47.4258 54.4377C47.3854 54.6892 47.3674 54.8958 47.3674 55.053C47.3674 55.4483 47.4527 55.7851 47.6234 56.0635C47.7941 56.342 48.1039 56.4812 48.5576 56.4812C49.0336 56.4812 49.4828 56.324 49.9049 56.0052C50.3271 55.6863 50.6595 55.3854 50.8975 55.0934L53.5563 42.7561L53.5473 42.7471Z" fill="white"/>
<path d="M63.7841 42.7473C64.7631 42.5362 65.621 42.2982 66.362 42.0332C67.1031 41.7682 67.7813 41.4403 68.4055 41.0406C69.0253 40.6454 69.6227 40.1559 70.1885 39.572C70.7589 38.9926 71.3697 38.2785 72.0344 37.4297H76.1214L74.9717 42.7428H78.0661L77.5497 45.4016H74.4148L72.789 53.1355C72.6542 53.7463 72.5509 54.2852 72.4701 54.7613C72.3892 55.2374 72.3533 55.6057 72.3533 55.8706C72.3533 56.4006 72.5464 56.7285 72.9282 56.8632C73.3099 56.9979 74.033 57.0608 75.0885 57.0608L74.4956 59.796C74.3115 59.8499 74.0241 59.8903 73.6423 59.9127C73.2605 59.9397 72.8339 59.9711 72.3713 60.0115C71.9087 60.052 71.4326 60.0789 70.9431 60.0924C70.4535 60.1059 70.0224 60.1104 69.6541 60.1104C68.9939 60.1104 68.3471 60.0654 67.7094 59.9711C67.0761 59.8768 66.5057 59.6927 66.0027 59.4142C65.4997 59.1358 65.0955 58.736 64.7946 58.2061C64.4892 57.6761 64.3365 56.962 64.3365 56.0638C64.3365 55.7449 64.3544 55.3497 64.3949 54.8736C64.4353 54.3975 64.5206 53.8676 64.6509 53.2882L66.3171 45.3926H63.2227L63.7796 42.7338L63.7841 42.7473Z" fill="white"/>
<path d="M90.0023 42.3125C93.1506 42.3125 95.4367 42.8694 96.8649 43.9787C98.3739 45.142 99.124 47.0732 99.124 49.7679C99.124 51.4342 98.8455 52.9342 98.2931 54.2681C97.7362 55.602 96.9592 56.7069 95.9532 57.5827C93.9411 59.2759 91.0353 60.1202 87.2267 60.1202C83.9751 60.1202 81.6486 59.5004 80.2474 58.2563C78.7383 56.9629 77.9883 55.0182 77.9883 52.4267C77.9883 50.7066 78.3386 49.1481 79.0392 47.7469C79.7399 46.3456 80.7504 45.1824 82.0753 44.2572C84.0065 42.9637 86.6518 42.3125 90.0068 42.3125H90.0023ZM87.3031 57.4255C87.9633 57.4255 88.5382 57.0572 89.0277 56.3161C89.5172 55.5751 89.908 54.6723 90.1954 53.5989C90.4874 52.53 90.7029 51.4162 90.8511 50.2665C90.9949 49.1167 91.0712 48.1197 91.0712 47.2708C91.0712 46.5298 90.9994 45.9684 90.8511 45.5866C90.7074 45.2048 90.393 45.0117 89.917 45.0117C89.2029 45.0117 88.5876 45.3935 88.0711 46.1615C87.5546 46.9295 87.1369 47.8412 86.8225 48.8966C86.5036 49.9566 86.2746 51.0389 86.1264 52.1483C85.9827 53.2576 85.9063 54.1603 85.9063 54.8475C85.9063 56.5676 86.3689 57.4255 87.2941 57.4255H87.3031Z" fill="white"/>
<path d="M0 30.0777C12.9033 21.9172 32.4715 20.251 47.5216 19.3797C59.3829 18.8183 72.4973 19.2629 84.4305 19.5728C88.54 19.6222 92.618 19.8872 96.714 20.1881L97.0149 20.206C96.2783 17.5607 95.2139 15.0232 93.907 12.6159C92.6315 10.3074 91.0775 8.12016 89.1059 6.32816C88.7915 6.00929 88.257 5.73083 87.7989 5.60957C85.2479 4.92241 80.6758 4.54964 78.035 4.17238C66.8474 2.95525 46.4617 3.26066 44.3239 3.77715C44.3239 3.77715 56.4951 4.12297 62.5627 4.47329C68.6124 4.86402 74.7025 5.3356 80.6399 6.57967C82.8676 7.05574 85.0278 7.68451 86.9186 8.97798C88.1807 9.77293 89.3843 10.7071 90.2152 11.9557C90.9518 13.0605 91.7871 14.7762 90.57 15.8181C87.6777 17.9425 83.0607 17.5832 79.6518 17.7673C64.4535 18.1985 49.2193 16.667 34.0435 18.3512C24.9802 19.3123 15.8899 21.1761 7.63957 25.1599C5.55564 26.1973 3.43129 27.2752 1.58091 28.7034C0.979087 29.1526 0.44014 29.6152 0 30.0777ZM6.21136 26.7767C4.01066 27.7423 1.92673 28.8382 0 30.0777C1.6393 28.901 3.82203 27.7827 6.21136 26.7767Z" fill="white"/>
<path d="M112.226 32.7647C111.938 29.8364 110.802 26.962 108.916 24.7029C107.959 23.6834 106.679 22.4169 105.161 22.628C103.746 23.0547 102.624 24.1056 101.299 24.7389C97.8673 26.6297 93.9959 27.5369 90.1335 28.0175C84.8608 28.6462 79.2422 29.0415 74.248 26.9036C74.1223 26.8273 73.9606 26.7554 73.7944 26.6746C73.6686 26.6117 73.5429 26.5488 73.4216 26.4815C73.3543 26.4455 73.2869 26.4051 73.224 26.3647C73.2016 26.3467 73.1791 26.3332 73.1566 26.3153C73.0938 26.2704 73.0354 26.221 72.995 26.1671C72.9276 26.0638 72.8961 25.9739 72.9006 25.8886C72.9006 25.8886 72.9006 25.8841 72.9006 25.8796C72.9051 25.7539 72.9815 25.6461 73.1027 25.5518C73.0084 25.6191 72.9411 25.7 72.9141 25.7943C72.9231 25.7629 72.9276 25.7314 72.9411 25.7C72.968 25.6326 73.0623 25.5608 73.1926 25.4934C73.1791 25.5024 73.1656 25.5114 73.1566 25.5203C73.1746 25.5114 73.1881 25.4979 73.206 25.4889C73.3453 25.417 73.5249 25.3407 73.7405 25.2688C73.9336 25.2059 74.1312 25.1476 74.3289 25.0937C74.2884 25.1027 74.2435 25.1161 74.2031 25.1251C74.3154 25.0937 74.4277 25.0622 74.5399 25.0308C74.4681 25.0488 74.4007 25.0757 74.3289 25.0937C74.6163 25.0218 74.8768 24.9634 75.0205 24.914C77.6973 24.3167 80.4234 23.8765 83.1541 23.6161C86.3653 23.2702 90.8296 22.9244 94.0633 22.4573C94.0633 22.4573 94.0678 22.4573 94.0723 22.4573C94.1935 22.4394 94.3148 22.4214 94.4316 22.4034L94.0813 22.372C68.6834 20.0545 42.3199 18.0694 17.6855 26.0997L17.7933 26.468C28.9271 23.9619 40.3168 22.7178 51.711 22.2013C62.3418 21.7477 72.9905 21.8735 83.6167 22.4708C81.3352 22.7627 79.0401 22.9783 76.7496 23.3062L67.6279 24.8601C66.6983 24.9679 65.1937 25.3946 65.3958 26.6297C65.6024 27.2764 66.3255 27.4605 66.8195 27.7884C68.1714 28.5429 69.5726 29.2121 71.0143 29.778C76.79 32.1404 83.2709 32.2078 89.2622 30.6718C93.7758 29.5984 98.0425 27.7794 102.448 26.3782C103.881 25.9964 105.386 25.2598 106.881 25.691C109.935 26.6656 111.04 30.0744 112.064 32.8096L112.298 33.4339L112.239 32.7692L112.226 32.7647ZM74.4232 26.98C74.9352 27.1956 75.4517 27.3842 75.9771 27.5504C75.6448 27.4516 75.3124 27.3438 74.9846 27.2225C74.7914 27.1551 74.6073 27.0653 74.4232 26.98ZM76.4981 27.7031C76.4981 27.7031 76.534 27.7121 76.552 27.7165C76.534 27.7121 76.5161 27.7076 76.4981 27.7031ZM74.1986 26.8812C74.0818 26.8228 73.9696 26.7644 73.8528 26.706C73.9785 26.7644 74.0953 26.8228 74.1986 26.8812ZM73.2195 26.3602C73.2195 26.3602 73.1791 26.3288 73.1566 26.3153C73.1746 26.3288 73.1971 26.3467 73.2195 26.3602ZM72.9006 25.956C72.9006 25.956 72.9006 25.9335 72.9006 25.9245C72.9006 25.9335 72.9006 25.947 72.9006 25.956ZM72.995 26.1581C72.959 26.1132 72.9366 26.0638 72.9186 26.0144C72.9366 26.0593 72.9545 26.1087 72.995 26.1581ZM77.7018 24.3391C77.4053 24.3885 77.1089 24.4379 76.817 24.4918C78.2542 24.1909 79.7093 23.9619 81.169 23.7777C82.2783 23.634 83.3876 23.5172 84.497 23.4095C82.1211 23.661 79.6375 23.9574 77.7062 24.3436L77.7018 24.3391ZM93.6681 22.4079C93.6681 22.4079 93.6815 22.4079 93.686 22.4079C93.6815 22.4079 93.6725 22.4079 93.6681 22.4079Z" fill="white"/>
<path d="M73.1393 25.5137C73.1393 25.5137 73.1019 25.537 73.0879 25.5511C73.1019 25.537 73.1206 25.5277 73.1393 25.5137Z" fill="white"/>
<path d="M17.7139 19.6895L17.9204 19.6626L17.9474 19.4605C18.3516 16.3301 19.4026 13.2177 21.4191 10.7789C27.5901 3.84896 39.119 2.43872 47.9263 1.80097C54.3173 1.41472 60.7398 1.51802 67.1353 1.80995C73.5308 2.12883 79.9487 2.56447 86.2499 3.75465C84.1435 3.06749 81.8845 2.51507 79.5715 2.06595C68.2266 -0.296435 56.4147 -0.287452 44.8992 0.399705C41.9709 0.583845 36.0066 1.23507 36.0111 1.25753C32.0678 1.74258 28.1335 2.32644 24.2037 2.86988C23.3324 2.95521 22.4072 3.21121 21.6527 3.68728C20.4849 4.37444 19.6136 5.5197 19.1196 6.75928L18.5807 7.94496C17.88 9.48096 16.0835 13.4647 15.3649 15.068C14.5969 16.7927 13.8065 18.4904 13.0879 20.2823L13.555 20.224L17.7139 19.694V19.6895ZM84.0088 3.33247C84.8262 3.4717 85.5852 3.61093 86.2499 3.75465C85.5044 3.60195 84.7588 3.46272 84.0088 3.33247ZM83.4249 3.23367C83.4249 3.23367 83.4519 3.23367 83.4654 3.23816C83.4519 3.23816 83.4384 3.23816 83.4249 3.23367Z" fill="white"/>
<path d="M101.809 20.7314C102.882 20.5069 103.987 20.453 105.092 20.4485C105.918 20.426 106.871 20.5383 107.634 20.0712C109.067 19.1011 108.712 17.2058 107.67 16.0965C106.942 15.1533 105.752 14.7491 104.643 14.4931C102.959 14.1563 101.189 14.1159 99.5319 14.6189C98.8537 14.8973 98.6516 15.6474 98.7774 16.3121C98.8897 17.4304 99.0244 18.5397 99.3478 19.6446L99.5184 20.0712C99.5409 19.8916 99.5679 19.7254 99.5993 19.5682C99.761 18.7373 100.066 18.1984 100.601 17.3675C101.423 15.8495 103.219 15.7866 104.683 16.366C105.254 16.5905 106.287 17.0576 106.139 17.7582C106.08 18.0097 105.6 18.0861 105.222 18.1355C104.504 18.2343 103.749 18.1624 103.04 18.3466C102.941 18.3646 102.775 18.4768 102.725 18.5397C101.328 20.1251 99.2714 20.8033 97.1875 20.5653C97.713 21.0413 98.2295 21.5668 98.7819 22.0743C99.6801 21.4051 100.727 20.956 101.813 20.7359L101.809 20.7314Z" fill="white"/>
<path d="M8.41747 20.7314C7.34407 20.5069 6.23923 20.453 5.13439 20.4485C4.30801 20.426 3.35587 20.5383 2.59236 20.0712C1.15966 19.1011 1.51446 17.2058 2.55643 16.0965C3.28401 15.1533 4.47418 14.7491 5.58351 14.4931C7.26772 14.1563 9.03726 14.1159 10.6945 14.6189C11.3727 14.8973 11.5748 15.6474 11.449 16.3121C11.3368 17.4304 11.202 18.5397 10.8787 19.6446L10.708 20.0712C10.6855 19.8916 10.6586 19.7254 10.6272 19.5682C10.4655 18.7373 10.1601 18.1984 9.62561 17.3675C8.80372 15.8495 7.00723 15.7866 5.54309 16.366C4.97271 16.5905 3.93972 17.0576 4.08794 17.7582C4.14632 18.0097 4.62688 18.0861 5.00414 18.1355C5.72274 18.2343 6.47727 18.1624 7.18688 18.3466C7.28569 18.3646 7.45186 18.4768 7.50126 18.5397C8.89803 20.1251 10.955 20.8033 13.0389 20.5653C12.5135 21.0413 11.997 21.5668 11.4446 22.0743C10.5463 21.4051 9.49986 20.956 8.41298 20.7359L8.41747 20.7314Z" fill="white"/>
<path d="M35.6696 66.582V72.6497H38.3823V73.8623H34.1426V66.582H35.6741H35.6696Z" fill="white"/>
<path d="M44.803 73.8623H43.2715V66.582H44.803V73.8623Z" fill="white"/>
<path d="M53.8245 66.4502C54.2602 66.4502 54.6689 66.4816 55.0506 66.549C55.4279 66.6164 55.7962 66.7286 56.1555 66.8948L55.9354 68.0805C55.612 67.9503 55.2932 67.847 54.9743 67.7751C54.6554 67.7032 54.3096 67.6673 53.9458 67.6673C53.5506 67.6673 53.2003 67.7212 52.8859 67.8335C52.5715 67.9413 52.3065 68.1075 52.0819 68.3275C51.8574 68.5476 51.6867 68.8261 51.5699 69.1584C51.4487 69.4952 51.3903 69.886 51.3903 70.3306C51.3903 71.157 51.6014 71.7813 52.0236 72.2034C52.4457 72.6256 53.079 72.8412 53.9278 72.8412C54.103 72.8412 54.2782 72.8277 54.4578 72.8008C54.6375 72.7738 54.7991 72.7424 54.9429 72.6975V70.5462H56.3217V73.5194C55.9803 73.6631 55.5761 73.7799 55.1135 73.8697C54.6509 73.955 54.1883 73.9999 53.7302 73.9999C53.1239 73.9999 52.585 73.9101 52.1044 73.7305C51.6238 73.5508 51.2196 73.2993 50.8873 72.9759C50.5504 72.6526 50.2989 72.2663 50.1238 71.8172C49.9486 71.3681 49.8633 70.8696 49.8633 70.3261C49.8633 69.7512 49.9531 69.2258 50.1328 68.7452C50.3124 68.2691 50.5729 67.8604 50.9142 67.5191C51.2556 67.1823 51.6732 66.9173 52.1583 66.7331C52.6478 66.549 53.2048 66.4547 53.829 66.4547L53.8245 66.4502Z" fill="white"/>
<path d="M66.1121 73.8623V70.7993H63.094V73.8623H61.5625V66.582H63.094V69.5328H66.1121V66.582H67.6436V73.8623H66.1121Z" fill="white"/>
<path d="M77.9971 66.582V67.7947H75.985V73.8623H74.4535V67.7947H72.4414V66.582H77.9971Z" fill="white"/>
</svg>
