<svg width="67" height="44" viewBox="0 0 67 44" fill="none" xmlns="http://www.w3.org/2000/svg">
<path d="M21.9117 35.5568H16.3919L16.0608 31.8076H11.6973L10.0229 35.5568H7.73438L14.6909 20.5811H20.2801L21.9064 35.5568H21.9117ZM12.4771 30.0851H15.8979L15.3558 23.6707L12.4797 30.0851H12.4771Z" fill="#0110CF"/>
<path d="M31.8394 25.417H36.6515L34.4831 35.5593H30.6617L30.2371 34.0505H30.0956C29.687 34.5392 29.1316 34.9424 28.4319 35.2655C27.7323 35.5887 27.0299 35.7489 26.3223 35.7489C25.3796 35.7489 24.6399 35.5086 24.1058 35.0305C23.5717 34.5499 23.3047 33.925 23.3047 33.1559C23.3047 32.7634 23.3714 32.272 23.505 31.6818C23.6385 31.0917 23.7613 30.5389 23.8708 30.0181L24.8616 25.4197H29.6496L28.4693 30.9394C28.4373 31.065 28.4052 31.2145 28.3758 31.3881C28.3438 31.5617 28.3117 31.7299 28.2824 31.8955C28.253 32.061 28.2236 32.2186 28.1996 32.3681C28.1756 32.5177 28.1649 32.6405 28.1649 32.734C28.1649 32.969 28.2156 33.1693 28.3171 33.3348C28.4186 33.5004 28.6028 33.5832 28.8725 33.5832C29.1556 33.5832 29.4226 33.4897 29.6737 33.3001C29.9247 33.1105 30.1223 32.9316 30.2638 32.758L31.8447 25.4223L31.8394 25.417Z" fill="#0110CF"/>
<path d="M37.9256 25.4167C38.5078 25.2912 39.0178 25.1496 39.4584 24.9921C39.8991 24.8345 40.3023 24.6396 40.6735 24.4019C41.042 24.1669 41.3972 23.8758 41.7336 23.5287C42.0728 23.1842 42.436 22.7596 42.8312 22.2549H45.2613L44.5776 25.414H46.4176L46.1105 26.9949H44.2465L43.2798 31.5934C43.1997 31.9566 43.1383 32.277 43.0902 32.5601C43.0422 32.8431 43.0208 33.0621 43.0208 33.2197C43.0208 33.5348 43.1356 33.7297 43.3626 33.8098C43.5896 33.89 44.0195 33.9273 44.6471 33.9273L44.2946 35.5536C44.1851 35.5857 44.0142 35.6097 43.7872 35.6231C43.5602 35.6391 43.3065 35.6578 43.0315 35.6818C42.7564 35.7058 42.4733 35.7219 42.1823 35.7299C41.8912 35.7379 41.6348 35.7406 41.4159 35.7406C41.0233 35.7406 40.6388 35.7139 40.2596 35.6578C39.883 35.6017 39.5439 35.4922 39.2448 35.3266C38.9457 35.1611 38.7054 34.9234 38.5264 34.6083C38.3449 34.2932 38.2541 33.8686 38.2541 33.3345C38.2541 33.1449 38.2647 32.9099 38.2888 32.6268C38.3128 32.3438 38.3636 32.0287 38.441 31.6842L39.4317 26.9896H37.5918L37.9229 25.4087L37.9256 25.4167Z" fill="#0110CF"/>
<path d="M53.5145 25.1582C55.3865 25.1582 56.7457 25.4893 57.5949 26.1489C58.4922 26.8406 58.9381 27.9889 58.9381 29.5911C58.9381 30.5819 58.7726 31.4738 58.4441 32.2669C58.113 33.06 57.651 33.7169 57.0528 34.2377C55.8565 35.2444 54.1287 35.7465 51.8642 35.7465C49.9308 35.7465 48.5475 35.3779 47.7143 34.6382C46.8171 33.8692 46.3711 32.7129 46.3711 31.172C46.3711 30.1492 46.5794 29.2226 46.996 28.3894C47.4126 27.5563 48.0134 26.8646 48.8012 26.3145C49.9495 25.5454 51.5224 25.1582 53.5172 25.1582H53.5145ZM51.9096 34.1442C52.3021 34.1442 52.6439 33.9252 52.935 33.4846C53.2261 33.044 53.4584 32.5072 53.6293 31.869C53.8029 31.2334 53.9311 30.5712 54.0192 29.8875C54.1047 29.2039 54.1501 28.6111 54.1501 28.1064C54.1501 27.6657 54.1073 27.3319 54.0192 27.1049C53.9338 26.878 53.7468 26.7631 53.4638 26.7631C53.0392 26.7631 52.6733 26.9901 52.3662 27.4468C52.0591 27.9034 51.8108 28.4455 51.6238 29.0731C51.4342 29.7033 51.298 30.3469 51.2099 31.0065C51.1245 31.666 51.0791 32.2028 51.0791 32.6114C51.0791 33.6342 51.3541 34.1442 51.9042 34.1442H51.9096Z" fill="#0110CF"/>
<path d="M0 17.8839C7.67215 13.0317 19.3072 12.041 28.2558 11.523C35.3085 11.1891 43.1061 11.4535 50.2015 11.6378C52.6449 11.6672 55.0697 11.8247 57.5051 12.0036L57.684 12.0143C57.2461 10.4414 56.6132 8.93263 55.8361 7.50128C55.0777 6.12868 54.1537 4.82818 52.9814 3.76268C52.7944 3.57307 52.4767 3.40751 52.2043 3.33541C50.6875 2.92683 47.969 2.70518 46.3988 2.48087C39.7467 1.75718 27.6256 1.93877 26.3545 2.24587C26.3545 2.24587 33.5914 2.45149 37.1991 2.65979C40.7962 2.89211 44.4173 3.17251 47.9476 3.91222C49.2721 4.19529 50.5566 4.56915 51.6809 5.33823C52.4313 5.8109 53.1469 6.36635 53.641 7.10873C54.0789 7.76565 54.5756 8.78576 53.8519 9.4053C52.1322 10.6684 49.387 10.4548 47.3601 10.5643C38.3234 10.8206 29.2653 9.91001 20.2419 10.9114C14.8529 11.4829 9.44799 12.5911 4.54241 14.9598C3.30332 15.5767 2.04021 16.2176 0.939992 17.0668C0.582154 17.3338 0.261702 17.6089 0 17.8839ZM3.69321 15.9212C2.3847 16.4953 1.14562 17.1469 0 17.8839C0.974708 17.1843 2.27254 16.5193 3.69321 15.9212Z" fill="#0110CF"/>
<path d="M66.7282 19.4812C66.5573 17.74 65.8817 16.031 64.7601 14.6877C64.1913 14.0815 63.4302 13.3285 62.5276 13.454C61.6865 13.7077 61.0188 14.3326 60.2311 14.7091C58.1909 15.8333 55.8889 16.3728 53.5924 16.6585C50.4573 17.0324 47.1166 17.2674 44.147 15.9962C44.0723 15.9508 43.9761 15.9081 43.8773 15.8601C43.8026 15.8227 43.7278 15.7853 43.6557 15.7452C43.6156 15.7239 43.5756 15.6998 43.5382 15.6758C43.5248 15.6651 43.5115 15.6571 43.4981 15.6464C43.4608 15.6197 43.426 15.5903 43.402 15.5583C43.3619 15.4969 43.3433 15.4435 43.3459 15.3927C43.3459 15.3927 43.3459 15.3901 43.3459 15.3874C43.3486 15.3126 43.394 15.2485 43.4661 15.1924C43.41 15.2325 43.37 15.2806 43.3539 15.3366C43.3593 15.318 43.3619 15.2993 43.37 15.2806C43.386 15.2405 43.4421 15.1978 43.5195 15.1577C43.5115 15.1631 43.5035 15.1684 43.4981 15.1737C43.5088 15.1684 43.5168 15.1604 43.5275 15.1551C43.6103 15.1123 43.7171 15.0669 43.8453 15.0242C43.9601 14.9868 44.0776 14.9521 44.1951 14.9201C44.1711 14.9254 44.1444 14.9334 44.1203 14.9388C44.1871 14.9201 44.2539 14.9014 44.3206 14.8827C44.2779 14.8934 44.2378 14.9094 44.1951 14.9201C44.366 14.8773 44.5209 14.8426 44.6064 14.8132C46.1979 14.4581 47.8189 14.1964 49.4425 14.0415C51.3519 13.8359 54.0063 13.6302 55.929 13.3525C55.929 13.3525 55.9317 13.3525 55.9343 13.3525C56.0064 13.3418 56.0785 13.3312 56.148 13.3205L55.9397 13.3018C40.8384 11.9238 25.1629 10.7435 10.5156 15.5182L10.5797 15.7372C17.1997 14.2471 23.9719 13.5074 30.7468 13.2003C37.0677 12.9306 43.3993 13.0054 49.7176 13.3605C48.361 13.5341 46.9964 13.6623 45.6345 13.8572L40.2108 14.7812C39.6581 14.8453 38.7635 15.099 38.8836 15.8333C39.0065 16.2179 39.4364 16.3274 39.7302 16.5223C40.534 16.971 41.3671 17.3688 42.2243 17.7053C45.6585 19.11 49.512 19.15 53.0743 18.2367C55.7581 17.5985 58.295 16.517 60.9147 15.6838C61.7666 15.4568 62.6612 15.0189 63.5504 15.2752C65.3663 15.8547 66.0232 17.8816 66.6321 19.5079L66.771 19.8791L66.7362 19.4838L66.7282 19.4812ZM44.2512 16.0416C44.5556 16.1698 44.8627 16.282 45.1752 16.3808C44.9776 16.322 44.7799 16.2579 44.585 16.1858C44.4702 16.1458 44.3607 16.0924 44.2512 16.0416ZM45.4849 16.4716C45.4849 16.4716 45.5063 16.4769 45.517 16.4796C45.5063 16.4769 45.4956 16.4743 45.4849 16.4716ZM44.1177 15.9829C44.0482 15.9482 43.9815 15.9135 43.9121 15.8787C43.9868 15.9135 44.0563 15.9482 44.1177 15.9829ZM43.5355 15.6731C43.5355 15.6731 43.5115 15.6544 43.4981 15.6464C43.5088 15.6544 43.5222 15.6651 43.5355 15.6731ZM43.3459 15.4328C43.3459 15.4328 43.3459 15.4194 43.3459 15.4141C43.3459 15.4194 43.3459 15.4274 43.3459 15.4328ZM43.402 15.553C43.3806 15.5262 43.3673 15.4969 43.3566 15.4675C43.3673 15.4942 43.378 15.5236 43.402 15.553ZM46.2006 14.4714C46.0244 14.5008 45.8481 14.5302 45.6745 14.5622C46.5291 14.3833 47.3943 14.2471 48.2622 14.1376C48.9218 14.0522 49.5814 13.9827 50.241 13.9186C48.8283 14.0682 47.3516 14.2444 46.2033 14.4741L46.2006 14.4714ZM55.694 13.3231C55.694 13.3231 55.702 13.3231 55.7047 13.3231C55.702 13.3231 55.6967 13.3231 55.694 13.3231Z" fill="#0110CF"/>
<path d="M43.4873 15.1699C43.4873 15.1699 43.4653 15.1837 43.457 15.1919C43.4653 15.1837 43.4763 15.1782 43.4873 15.1699Z" fill="#0110CF"/>
<path d="M10.5337 11.7072L10.6566 11.6911L10.6726 11.571C10.913 9.70968 11.5378 7.85907 12.7369 6.40903C16.406 2.28855 23.261 1.45004 28.4978 1.07084C32.2978 0.841178 36.1165 0.902598 39.9192 1.07618C43.7219 1.26578 47.5379 1.52481 51.2845 2.23247C50.0321 1.8239 48.6889 1.49543 47.3136 1.22839C40.5681 -0.176257 33.5449 -0.170916 26.6979 0.23766C24.9568 0.347148 21.4104 0.734361 21.4131 0.747713C19.0685 1.03612 16.7292 1.38328 14.3925 1.7064C13.8745 1.75714 13.3244 1.90935 12.8757 2.19242C12.1814 2.60099 11.6633 3.28195 11.3696 4.01899L11.0491 4.72399C10.6326 5.63727 9.56438 8.00595 9.13711 8.95929C8.68047 9.98474 8.21047 10.9942 7.7832 12.0597L8.06093 12.0249L10.5337 11.7098V11.7072ZM49.952 1.98145C50.438 2.06424 50.8893 2.14702 51.2845 2.23247C50.8413 2.14168 50.398 2.0589 49.952 1.98145ZM49.6048 1.9227C49.6048 1.9227 49.6209 1.9227 49.6289 1.92537C49.6209 1.92537 49.6129 1.92537 49.6048 1.9227Z" fill="#0110CF"/>
<path d="M60.535 12.3264C61.1732 12.1929 61.8301 12.1608 62.4871 12.1582C62.9784 12.1448 63.5446 12.2116 63.9985 11.9338C64.8504 11.357 64.6394 10.2301 64.0199 9.5705C63.5873 9.00971 62.8796 8.76938 62.22 8.61716C61.2186 8.41688 60.1665 8.39284 59.1811 8.69193C58.7778 8.8575 58.6577 9.30346 58.7324 9.69869C58.7992 10.3636 58.8793 11.0232 59.0716 11.6801L59.1731 11.9338C59.1864 11.827 59.2024 11.7282 59.2211 11.6347C59.3173 11.1407 59.4989 10.8203 59.8166 10.3262C60.3053 9.42363 61.3735 9.38624 62.2441 9.73073C62.5832 9.86425 63.1974 10.142 63.1093 10.5586C63.0746 10.7081 62.7888 10.7535 62.5645 10.7829C62.1372 10.8416 61.6886 10.7989 61.2667 10.9084C61.2079 10.9191 61.1091 10.9858 61.0798 11.0232C60.2492 11.9659 59.0262 12.3691 57.7871 12.2276C58.0995 12.5107 58.4067 12.8231 58.7351 13.1249C59.2692 12.727 59.8914 12.4599 60.5377 12.3291L60.535 12.3264Z" fill="#0110CF"/>
<path d="M5.00484 12.3264C4.36661 12.1929 3.70968 12.1608 3.05276 12.1582C2.5614 12.1448 1.99526 12.2116 1.54129 11.9338C0.689423 11.357 0.900388 10.2301 1.51993 9.5705C1.95254 9.00971 2.6602 8.76938 3.3198 8.61716C4.32121 8.41688 5.37336 8.39284 6.35875 8.69193C6.76199 8.8575 6.88216 9.30346 6.80738 9.69869C6.74062 10.3636 6.66051 11.0232 6.46824 11.6801L6.36676 11.9338C6.35341 11.827 6.33739 11.7282 6.3187 11.6347C6.22256 11.1407 6.04097 10.8203 5.72319 10.3262C5.2345 9.42363 4.16633 9.38624 3.29577 9.73073C2.95662 9.86425 2.34242 10.142 2.43055 10.5586C2.46526 10.7081 2.751 10.7535 2.97531 10.7829C3.40258 10.8416 3.85122 10.7989 4.27314 10.9084C4.33189 10.9191 4.4307 10.9858 4.46007 11.0232C5.29058 11.9659 6.51364 12.3691 7.75272 12.2276C7.44028 12.5107 7.13318 12.8231 6.80471 13.1249C6.27063 12.727 5.64842 12.4599 5.00217 12.3291L5.00484 12.3264Z" fill="#0110CF"/>
<path d="M21.2087 39.5889V43.1966H22.8217V43.9176H20.3008V39.5889H21.2114H21.2087Z" fill="#0110CF"/>
<path d="M26.6391 43.9176H25.7285V39.5889H26.6391V43.9176Z" fill="#0110CF"/>
<path d="M32.0038 39.5107C32.2628 39.5107 32.5058 39.5294 32.7328 39.5695C32.9571 39.6095 33.1761 39.6763 33.3897 39.7751L33.2589 40.4801C33.0666 40.4027 32.877 40.3412 32.6874 40.2985C32.4978 40.2558 32.2922 40.2344 32.0759 40.2344C31.8409 40.2344 31.6326 40.2665 31.4456 40.3332C31.2587 40.3973 31.1012 40.4961 30.9676 40.627C30.8341 40.7578 30.7326 40.9234 30.6632 41.121C30.5911 41.3213 30.5564 41.5536 30.5564 41.818C30.5564 42.3094 30.6819 42.6805 30.9329 42.9316C31.1839 43.1826 31.5605 43.3108 32.0652 43.3108C32.1693 43.3108 32.2735 43.3028 32.3803 43.2867C32.4871 43.2707 32.5832 43.252 32.6687 43.2253V41.9462H33.4885V43.714C33.2856 43.7995 33.0452 43.8689 32.7702 43.9223C32.4951 43.973 32.2201 43.9997 31.9477 43.9997C31.5872 43.9997 31.2667 43.9463 30.981 43.8395C30.6952 43.7327 30.4549 43.5832 30.2573 43.3909C30.057 43.1986 29.9075 42.969 29.8033 42.7019C29.6992 42.4349 29.6484 42.1384 29.6484 41.8153C29.6484 41.4735 29.7018 41.1611 29.8087 40.8753C29.9155 40.5923 30.0704 40.3493 30.2733 40.1463C30.4763 39.946 30.7246 39.7885 31.013 39.679C31.3041 39.5695 31.6352 39.5134 32.0064 39.5134L32.0038 39.5107Z" fill="#0110CF"/>
<path d="M39.3087 43.9176V42.0964H37.5141V43.9176H36.6035V39.5889H37.5141V41.3433H39.3087V39.5889H40.2193V43.9176H39.3087Z" fill="#0110CF"/>
<path d="M46.3756 39.5889V40.3099H45.1792V43.9176H44.2686V40.3099H43.0723V39.5889H46.3756Z" fill="#0110CF"/>
</svg>
