<svg width="38" height="42" viewBox="0 0 38 42" fill="none" xmlns="http://www.w3.org/2000/svg">
<path d="M13.6846 4.43097C13.6835 1.98649 15.6762 0 18.129 0C20.5764 0 22.5856 1.99635 22.5856 4.42878C22.5856 6.8645 20.583 8.85537 18.1312 8.85866C15.6784 8.86195 13.6846 6.87656 13.6846 4.43097Z" fill="#0110CF"/>
<path d="M36.8009 20.0502C35.9356 20.0502 33.8824 19.9866 33.8824 19.9866C33.4321 18.6104 31.8776 16.2383 30.4364 15.1842V9.02313C29.9003 9.02313 29.4214 9.01656 28.9436 9.02423C27.1788 9.05271 25.6066 9.62138 24.2437 10.7346C23.8242 11.0776 23.0338 11.7974 23.0338 11.7974C23.0338 11.7974 17.299 11.7229 15.2656 11.7404C11.8207 11.77 8.78326 12.8964 6.20707 15.1831C5.56522 15.7529 4.99494 16.4037 4.38172 17.0282C3.29179 16.5001 2.72702 15.5272 2.36701 14.3876C1.55672 14.6133 0.784966 14.827 0 15.045C0.509733 16.8365 1.48846 18.216 3.09803 19.1539C3.02207 19.3215 2.95821 19.4694 2.88995 19.6141C2.17324 21.1415 1.73067 22.7499 1.67232 24.4285C1.48516 29.8128 4.0096 34.1955 8.57848 37.0925V42.0001H16.4711V38.8084H20.0381V42.0001H27.9516V37.0925C31.2974 34.9044 32.4699 33.5129 33.8581 30.4702H37.2512V20.0524H36.7998L36.8009 20.0502ZM22.6605 18.8219H13.5855V16.4004H22.6605V18.8219ZM27.7766 24.2861C26.8826 24.2828 26.1527 23.564 26.145 22.6765C26.1362 21.7803 26.8892 21.0286 27.792 21.0341C28.6815 21.0396 29.417 21.7682 29.4258 22.6502C29.4346 23.5509 28.6904 24.2894 27.7777 24.2861H27.7766Z" fill="#0110CF"/>
</svg>
