<svg width="38" height="34" viewBox="0 0 38 34" fill="none" xmlns="http://www.w3.org/2000/svg">
<path d="M26.8432 13.7216C26.1206 14.4442 24.9163 14.4442 24.1936 13.7216L15.9114 5.45787L2.84876 18.502L1.62588 17.3347C-0.54196 15.1668 -0.54196 11.6464 1.62588 9.47856L9.48198 1.62246C11.6498 -0.545374 15.1702 -0.545374 17.3381 1.62246L26.8432 11.1091C27.5658 11.8317 27.5658 12.999 26.8432 13.7216ZM28.1402 9.79355C29.5854 11.2388 29.5854 13.5919 28.1402 15.0371C25.7871 17.3902 23.3043 15.4448 22.8966 15.0371L15.9299 8.0704L5.60951 18.3908C4.8869 19.1134 4.8869 20.2807 5.60951 21.0033C6.33213 21.7259 7.49943 21.7259 8.24057 21.0033L16.8008 12.4431L18.1163 13.7587L9.55609 22.3188C8.83348 23.0415 8.83348 24.2087 9.55609 24.9314C10.2787 25.654 11.446 25.654 12.1871 24.9314L20.7473 16.3712L22.0629 17.6867L13.5027 26.2469C12.7801 26.9695 12.7801 28.1368 13.5027 28.8594C14.2253 29.582 15.3926 29.582 16.1152 28.8594L24.6754 20.2992L25.9909 21.6148L17.4307 30.1749C16.7081 30.8976 16.7081 32.0648 17.4307 32.7875C18.1533 33.5101 19.3206 33.5101 20.0432 32.7875L35.459 17.3347C37.6268 15.1668 37.6268 11.6464 35.459 9.47856L27.6029 1.62246C25.4721 -0.508317 22.0258 -0.545374 19.858 1.51129L28.1402 9.79355Z" fill="#0110CF"/>
</svg>
