<svg width="30" height="30" viewBox="0 0 30 30" fill="none" xmlns="http://www.w3.org/2000/svg">
<path d="M20.8579 16.5063C20.8446 16.9769 20.8002 17.4576 20.7577 17.9225C20.731 18.2085 20.7038 18.504 20.6835 18.7958C20.6816 18.8218 20.6784 18.837 20.6759 18.8459C20.6448 18.8535 20.5737 18.8528 20.5338 18.8535C19.0755 18.8516 17.6172 18.8516 16.1584 18.8516H14.9982C14.5371 18.8516 14.0747 18.8516 13.6129 18.8516C12.2732 18.8509 10.8873 18.8497 9.52418 18.8586C9.32818 18.8605 9.32437 18.8598 9.3009 18.6575C9.13281 17.1823 9.0827 15.6146 9.13979 13.575C9.15374 13.0847 9.19878 12.5837 9.24255 12.0992C9.26855 11.8119 9.29519 11.5151 9.31549 11.2221C9.31803 11.1847 9.32374 11.165 9.32691 11.1561C9.33706 11.1529 9.36433 11.1479 9.41761 11.1479C10.0024 11.1523 10.5961 11.1517 11.1708 11.151C11.3985 11.151 11.6269 11.151 11.8546 11.151C12.5098 11.1504 13.1714 11.151 13.8298 11.151C16.0023 11.151 18.249 11.1529 20.4589 11.1447C20.6619 11.1434 20.6752 11.1434 20.7006 11.3616C20.8687 12.8399 20.9175 14.4274 20.8579 16.5076V16.5063Z" fill="#0110CF"/>
<path d="M20.3161 8.72295C20.2704 8.72422 20.2178 8.72422 20.1848 8.72422C18.854 8.72422 17.5226 8.72422 16.1918 8.72422H13.7409C12.4399 8.72422 11.0946 8.72295 9.77142 8.72739C9.72892 8.72739 9.70228 8.72612 9.68262 8.72422C9.68389 8.71217 9.68642 8.69695 9.69023 8.67793C10.1304 6.55904 10.7781 4.10213 12.2477 1.94646C12.733 1.23488 13.2252 0.737031 13.7967 0.380607C14.6124 -0.12866 15.4021 -0.126757 16.2115 0.385681C17.1572 0.984371 17.7516 1.87226 18.2089 2.66121C19.1382 4.26766 19.7826 6.10749 20.2983 8.62719C20.3021 8.64558 20.3097 8.6849 20.3161 8.72232V8.72295Z" fill="#0110CF"/>
<path d="M20.3173 21.2766C20.3161 21.2906 20.3135 21.3083 20.3085 21.3318C19.8829 23.3834 19.2587 25.7693 17.8524 27.9085C17.3488 28.6746 16.8388 29.2099 16.247 29.5936C15.4097 30.1352 14.5953 30.1358 13.7574 29.5949C13.0914 29.1649 12.5332 28.549 11.9484 27.5977C11.014 26.0782 10.3569 24.3271 9.819 21.9191C9.78348 21.7624 9.7543 21.6001 9.72576 21.4421C9.71561 21.3882 9.70546 21.3337 9.69531 21.2798C9.74606 21.2798 9.7968 21.2791 9.84755 21.2785C9.90336 21.2779 9.95855 21.2779 10.0137 21.2779C10.844 21.2779 11.6743 21.2779 12.504 21.2779C13.7612 21.2779 15.0177 21.2779 16.2749 21.2779C17.574 21.2791 18.9168 21.2798 20.2374 21.2734C20.2736 21.2734 20.2996 21.2747 20.3173 21.2766Z" fill="#0110CF"/>
<path d="M29.5321 18.7028C29.496 18.8448 29.4769 18.8588 29.3393 18.8575C28.8604 18.8518 28.3764 18.8499 27.8969 18.8499C27.6191 18.8499 27.3425 18.8506 27.0691 18.8512C26.516 18.8525 25.9629 18.8512 25.4092 18.8512C24.6854 18.8499 23.9363 18.8487 23.1992 18.8563C23.1428 18.8569 23.1085 18.8537 23.0901 18.8506C23.0882 18.8309 23.0876 18.7966 23.0933 18.7377C23.3128 16.5338 23.3451 14.5094 23.1935 12.5484C23.1834 12.4108 23.1745 12.2726 23.165 12.1349C23.146 11.8343 23.1257 11.5236 23.0876 11.2166C23.0838 11.1862 23.0825 11.1646 23.0832 11.15C23.0978 11.1481 23.1193 11.1462 23.1479 11.1475C23.6915 11.1526 24.2439 11.1519 24.778 11.1507C24.9943 11.1507 25.2106 11.1507 25.4269 11.1507C25.7688 11.15 26.1107 11.1507 26.4519 11.1507C27.3914 11.1519 28.3631 11.1532 29.319 11.1437C29.4744 11.1418 29.4972 11.1595 29.5353 11.3105C30.1569 13.7649 30.1556 16.2516 29.5321 18.7028Z" fill="#0110CF"/>
<path d="M6.91415 18.8511C6.89829 18.8536 6.87165 18.8556 6.83549 18.8549C4.72326 18.8492 2.63704 18.8492 0.635816 18.8555C0.51847 18.8568 0.508956 18.8486 0.479778 18.7357C-0.157697 16.2724 -0.1596 13.7654 0.472166 11.2838C0.501978 11.1677 0.512127 11.1455 0.661823 11.1455H0.678314C1.42806 11.1525 2.18986 11.1518 2.92628 11.1506C3.19396 11.1506 3.46164 11.1506 3.72931 11.1506C4.00841 11.1499 4.2894 11.1506 4.56913 11.1506C5.30619 11.1518 6.06735 11.1525 6.8171 11.1461C6.86467 11.1461 6.89448 11.1487 6.91224 11.1512C6.91415 11.1696 6.91415 11.2001 6.90907 11.2482C6.65155 13.7483 6.65218 16.2775 6.91034 18.7661C6.91478 18.8067 6.91478 18.834 6.91415 18.8511Z" fill="#0110CF"/>
<path d="M10.1358 29.1801C8.18469 28.4869 6.46826 27.488 5.0322 26.2095C3.553 24.8929 2.32753 23.2407 1.39003 21.2988C1.38623 21.2918 1.38305 21.2849 1.37988 21.2779H1.40018C2.05351 21.2772 2.70748 21.2772 3.36145 21.2772C4.59453 21.2779 5.86948 21.2779 7.1235 21.2734C7.25607 21.2734 7.25543 21.2734 7.2789 21.3996C7.7356 23.8762 8.39908 25.9564 9.3074 27.7588C9.55351 28.2465 9.83134 28.7235 10.1358 29.1801Z" fill="#0110CF"/>
<path d="M28.6223 21.2754L28.6115 21.2982C27.7539 23.1362 26.5627 24.7546 25.0695 26.108C23.5459 27.49 21.7934 28.5256 19.8594 29.1871C20.0433 28.8941 20.2178 28.617 20.3827 28.3259C21.3658 26.5843 22.0731 24.5733 22.6072 21.9978L22.6287 21.8931C22.6674 21.7111 22.7068 21.5227 22.734 21.3325C22.7378 21.3039 22.7436 21.2887 22.7461 21.2824C22.7543 21.2798 22.7753 21.2767 22.8102 21.276C25.1501 21.2792 26.9445 21.2792 28.6223 21.2754Z" fill="#0110CF"/>
<path d="M10.1386 0.817383C9.97752 1.06853 9.82465 1.30826 9.68003 1.56004C8.66514 3.32947 7.94077 5.36654 7.39971 7.96932L7.39337 7.99723C7.31852 8.35873 7.26904 8.59719 7.19103 8.66061C7.11237 8.72466 6.86817 8.72466 6.49773 8.72466H5.23293C3.96813 8.72466 2.70333 8.72466 1.43917 8.72466H1.37891C1.38525 8.71071 1.39223 8.69612 1.39984 8.6809C3.24312 4.87376 6.18248 2.22913 10.1386 0.817383Z" fill="#0110CF"/>
<path d="M28.6196 8.72412H28.5523C28.0195 8.72412 27.4861 8.72412 26.9526 8.72412C25.632 8.72348 24.2664 8.72285 22.9235 8.72983C22.7485 8.7311 22.7415 8.72412 22.7104 8.55605C22.2544 6.09407 21.5921 4.02465 20.6851 2.22922C20.4453 1.75356 20.1726 1.28742 19.8535 0.808594C20.276 0.94368 20.7124 1.11872 21.2154 1.35401C24.5245 2.90147 27.0053 5.35902 28.5885 8.65816C28.5955 8.67338 28.6075 8.69748 28.6196 8.72412Z" fill="#0110CF"/>
</svg>
