<svg width="89" height="30" viewBox="0 0 89 30" fill="none" xmlns="http://www.w3.org/2000/svg">
<path d="M65.3903 13.3431C64.1472 13.3431 63.0008 13.0392 61.9511 12.4315C60.929 11.8238 60.1141 11.0088 59.5063 9.98674C58.8986 8.96464 58.5947 7.85967 58.5947 6.67183C58.5947 5.48398 58.8986 4.39282 59.5063 3.39834C60.1141 2.37624 60.929 1.56133 61.9511 0.953595C63.0008 0.345859 64.1472 0.0419922 65.3903 0.0419922C66.6334 0.0419922 67.766 0.345859 68.7881 0.953595C69.8378 1.56133 70.6666 2.37624 71.2743 3.39834C71.882 4.39282 72.1859 5.48398 72.1859 6.67183C72.1859 7.85967 71.882 8.96464 71.2743 9.98674C70.6666 11.0088 69.8378 11.8238 68.7881 12.4315C67.766 13.0392 66.6334 13.3431 65.3903 13.3431ZM66.7163 29.5033H62.4483L80.6804 0.497792H84.9483L66.7163 29.5033ZM65.3903 9.9453C66.3019 9.9453 67.0478 9.62763 67.6279 8.99227C68.2356 8.35691 68.5395 7.58343 68.5395 6.67183C68.5395 5.76022 68.2356 5.00055 67.6279 4.39282C67.0478 3.75746 66.3019 3.43978 65.3903 3.43978C64.4787 3.43978 63.719 3.75746 63.1113 4.39282C62.5312 5.00055 62.2411 5.76022 62.2411 6.67183C62.2411 7.58343 62.5312 8.35691 63.1113 8.99227C63.719 9.62763 64.4787 9.9453 65.3903 9.9453ZM82.0063 29.9591C80.7632 29.9591 79.6168 29.6552 78.5671 29.0475C77.545 28.4398 76.7301 27.6387 76.1224 26.6442C75.5146 25.6221 75.2107 24.5171 75.2107 23.3293C75.2107 22.1414 75.5146 21.0365 76.1224 20.0144C76.7301 18.9923 77.545 18.1773 78.5671 17.5696C79.6168 16.9619 80.7632 16.658 82.0063 16.658C83.2494 16.658 84.382 16.9619 85.4041 17.5696C86.4538 18.1773 87.2826 18.9923 87.8903 20.0144C88.498 21.0365 88.8019 22.1414 88.8019 23.3293C88.8019 24.5171 88.498 25.6221 87.8903 26.6442C87.2826 27.6387 86.4538 28.4398 85.4041 29.0475C84.382 29.6552 83.2494 29.9591 82.0063 29.9591ZM82.0063 26.5613C82.9179 26.5613 83.6638 26.2575 84.2439 25.6497C84.8516 25.0144 85.1555 24.2409 85.1555 23.3293C85.1555 22.4177 84.8516 21.6442 84.2439 21.0088C83.6638 20.3735 82.9179 20.0558 82.0063 20.0558C81.0947 20.0558 80.3351 20.3735 79.7273 21.0088C79.1472 21.6442 78.8572 22.4177 78.8572 23.3293C78.8572 24.2409 79.1472 25.0144 79.7273 25.6497C80.3351 26.2575 81.0947 26.5613 82.0063 26.5613Z" fill="#0110CF"/>
<path d="M34.9265 29.9998C32.6337 29.9998 30.548 29.544 28.6696 28.6324C26.8188 27.7208 25.4514 26.6987 24.5674 25.5661L27.9652 22.1269C28.5453 22.928 29.4431 23.6601 30.6585 24.323C31.874 24.986 33.2276 25.3175 34.7193 25.3175C36.4596 25.3175 37.8409 24.8479 38.863 23.9087C39.8851 22.9418 40.3961 21.6849 40.3961 20.138C40.3961 18.591 39.8851 17.3479 38.863 16.4087C37.8409 15.4418 36.4596 14.9584 34.7193 14.9584C33.6143 14.9584 32.6061 15.2346 31.6945 15.7871C30.7828 16.312 30.1199 16.9059 29.7055 17.5689L25.9348 17.0717L27.0121 0.49707H43.8353V5.34514H31.5701L31.1558 11.8092C31.5978 11.4777 32.2608 11.1739 33.1447 10.8976C34.0287 10.5938 34.9679 10.4418 35.9624 10.4418C37.8132 10.4418 39.4707 10.87 40.9348 11.7264C42.3989 12.5551 43.5453 13.7015 44.374 15.1656C45.2304 16.6297 45.6585 18.2871 45.6585 20.138C45.6585 22.0164 45.2165 23.7015 44.3326 25.1932C43.4486 26.6849 42.1917 27.8589 40.5619 28.7153C38.932 29.5717 37.0536 29.9998 34.9265 29.9998Z" fill="#0110CF"/>
<path d="M10.6077 0C12.6243 0 14.4337 0.441988 16.0359 1.32597C17.6381 2.20994 18.895 3.4116 19.8066 4.93094C20.7182 6.42265 21.174 8.0663 21.174 9.86188C21.174 11.0221 20.953 12.1961 20.511 13.384C20.0967 14.5442 19.5994 15.5801 19.0193 16.4917L10.6077 29.5028H5.01381L11.6022 19.558C10.9945 19.6685 10.4696 19.7238 10.0276 19.7238C8.17679 19.7238 6.4779 19.2818 4.93094 18.3978C3.4116 17.5138 2.20994 16.3122 1.32597 14.7928C0.441989 13.2735 0 11.6298 0 9.86188C0 8.0663 0.455801 6.42265 1.3674 4.93094C2.27901 3.4116 3.53591 2.20994 5.13812 1.32597C6.76795 0.441988 8.59116 0 10.6077 0ZM10.6077 15.0829C12.1271 15.0829 13.3978 14.5856 14.4199 13.5912C15.4696 12.5691 15.9945 11.326 15.9945 9.86188C15.9945 8.39779 15.4696 7.1547 14.4199 6.1326C13.3978 5.1105 12.1271 4.59945 10.6077 4.59945C9.06077 4.59945 7.76243 5.1105 6.71271 6.1326C5.69061 7.1547 5.17956 8.39779 5.17956 9.86188C5.17956 11.326 5.69061 12.5691 6.71271 13.5912C7.76243 14.5856 9.06077 15.0829 10.6077 15.0829Z" fill="#0110CF"/>
</svg>
