<svg width="28" height="34" viewBox="0 0 28 34" fill="none" xmlns="http://www.w3.org/2000/svg">
<path d="M13.6991 -0.00390625C13.6991 -0.00390625 21.4048 3.48327 21.4048 17.9448C21.4048 22.2012 19.6239 27.4662 18.665 29.9106H8.73316C7.77423 27.4662 5.99335 22.2012 5.99335 17.9448C5.99335 3.48327 13.6991 -0.00390625 13.6991 -0.00390625ZM17.1238 14.526C17.1238 12.6457 15.5827 11.1072 13.6991 11.1072C11.8155 11.1072 10.2743 12.6457 10.2743 14.526C10.2743 16.4063 11.8155 17.9448 13.6991 17.9448C15.5827 17.9448 17.1238 16.4063 17.1238 14.526ZM6.3187 30.7995C5.49676 28.6969 3.71588 23.6713 3.45902 19.0559L1.52402 20.338C0.565087 20.9875 0 22.0474 0 23.1927V33.3294L6.3187 30.7995ZM27.3982 33.3294V23.1927C27.3982 22.0474 26.8331 20.9875 25.8741 20.3551L23.9391 19.073C23.6823 23.6713 21.8843 28.714 21.0795 30.8166L27.3982 33.3294Z" fill="#0110CF"/>
</svg>
